<?xml version="1.0" encoding="UTF-8"?>
<svg width="16px" height="16px" viewBox="0 0 16 16" version="1.1" xmlns="http://www.w3.org/2000/svg" xmlns:xlink="http://www.w3.org/1999/xlink">
    <title>Group 67</title>
    <g id="Design" stroke="none" stroke-width="1" fill="none" fill-rule="evenodd">
        <g id="Group-66">
            <rect id="Rectangle" fill="#F96D00" x="0" y="0" width="16" height="16"></rect>
            <g id="Group-227-Copy" transform="translate(2.000000, 1.000000)" fill="#FFFFFF" fill-rule="nonzero">
                <path d="M5.94230769,14 C6.82692308,14 7.63701923,13.8652968 8.37259615,13.5958904 C9.10817308,13.326484 9.74519231,12.9497717 10.2836538,12.4657534 C10.8221154,11.9817352 11.2427885,11.4063927 11.5456731,10.739726 C11.8485577,10.0730594 12,9.34703196 12,8.56164384 C12,7.90410959 11.9399038,7.3630137 11.8197115,6.93835616 C11.6995192,6.51369863 11.4759615,6.04109589 11.1490385,5.52054795 C10.7740385,4.93607306 10.5793269,4.45890411 10.5649038,4.0890411 C10.5504808,3.71917808 10.5432692,3.52511416 10.5432692,3.50684932 C10.5625,3.42465753 10.5552885,3.34474886 10.5216346,3.26712329 C10.4879808,3.18949772 10.4375,3.12785388 10.3701923,3.08219178 C10.3028846,3.02739726 10.2283654,2.99543379 10.1466346,2.98630137 C10.0649038,2.97716895 9.98557692,2.99086758 9.90865385,3.02739726 C9.88942308,3.03652968 9.70432692,3.15981735 9.35336538,3.39726027 C9.00240385,3.6347032 8.74038462,4.05479452 8.56730769,4.65753425 C8.51923077,4.81278539 8.48076923,4.96803653 8.45192308,5.12328767 C8.42307692,5.27853881 8.39903846,5.42922374 8.37980769,5.57534247 C8.3125,5.46575342 8.24759615,5.35844749 8.18509615,5.25342466 C8.12259615,5.14840183 8.06730769,5.05022831 8.01923077,4.95890411 C7.77884615,4.44748858 7.61538462,3.93150685 7.52884615,3.4109589 C7.44230769,2.89041096 7.39663462,2.41552511 7.39182692,1.98630137 C7.38701923,1.55707763 7.40384615,1.20547945 7.44230769,0.931506849 C7.48076923,0.657534247 7.5,0.520547945 7.5,0.520547945 C7.51923077,0.447488584 7.51682692,0.374429224 7.49278846,0.301369863 C7.46875,0.228310502 7.42788462,0.164383562 7.37019231,0.109589041 C7.30288462,0.0639269406 7.23076923,0.0319634703 7.15384615,0.0136986301 C7.07692308,-0.00456621005 7,-0.00456621005 6.92307692,0.0136986301 C6.89423077,0.0228310502 6.72115385,0.0890410959 6.40384615,0.212328767 C6.08653846,0.335616438 5.72596154,0.557077626 5.32211538,0.876712329 C4.91826923,1.19634703 4.52403846,1.62785388 4.13942308,2.17123288 C3.75480769,2.71461187 3.48076923,3.4109589 3.31730769,4.26027397 C3.19230769,4.88127854 3.15384615,5.47945205 3.20192308,6.05479452 C3.25,6.63013699 3.32211538,7.11872146 3.41826923,7.52054795 C3.27403846,7.42922374 3.13701923,7.31506849 3.00721154,7.17808219 C2.87740385,7.04109589 2.74519231,6.87671233 2.61057692,6.68493151 C2.42788462,6.40182648 2.27403846,6.06849315 2.14903846,5.68493151 C2.02403846,5.30136986 1.95673077,5.10502283 1.94711538,5.09589041 C1.92788462,5.01369863 1.88221154,4.94292237 1.81009615,4.88356164 C1.73798077,4.82420091 1.65384615,4.78995434 1.55769231,4.78082192 C1.47115385,4.7716895 1.38461538,4.78538813 1.29807692,4.82191781 C1.21153846,4.85844749 1.14903846,4.91780822 1.11057692,5 C1.09134615,5.01826484 1.02403846,5.1347032 0.908653846,5.34931507 C0.793269231,5.56392694 0.668269231,5.84018265 0.533653846,6.17808219 C0.399038462,6.51598174 0.276442308,6.89269406 0.165865385,7.30821918 C0.0552884615,7.72374429 0,8.14155251 0,8.56164384 C0,9.34703196 0.146634615,10.0730594 0.439903846,10.739726 C0.733173077,11.4063927 1.14182692,11.9817352 1.66586538,12.4657534 C2.18990385,12.9497717 2.81730769,13.326484 3.54807692,13.5958904 C4.27884615,13.8652968 5.07692308,14 5.94230769,14 Z M5.94230769,13.1232877 C5.21153846,13.1232877 4.53846154,13.0091324 3.92307692,12.7808219 C3.30769231,12.5525114 2.77644231,12.2351598 2.32932692,11.8287671 C1.88221154,11.4223744 1.53605769,10.9406393 1.29086538,10.3835616 C1.04567308,9.82648402 0.923076923,9.21461187 0.923076923,8.54794521 C0.923076923,8.1826484 0.978365385,7.80821918 1.08894231,7.42465753 C1.19951923,7.04109589 1.31730769,6.69863014 1.44230769,6.39726027 C1.5,6.52511416 1.5625,6.65525114 1.62980769,6.78767123 C1.69711538,6.92009132 1.76442308,7.04109589 1.83173077,7.15068493 C2.25480769,7.78082192 2.72115385,8.20319635 3.23076923,8.41780822 C3.74038462,8.63242009 4.00961538,8.74429224 4.03846154,8.75342466 C4.11538462,8.7716895 4.19471154,8.76712329 4.27644231,8.73972603 C4.35817308,8.71232877 4.42788462,8.67123288 4.48557692,8.61643836 C4.54326923,8.55251142 4.57932692,8.47945205 4.59375,8.39726027 C4.60817308,8.31506849 4.60096154,8.23744292 4.57211538,8.16438356 C4.57211538,8.16438356 4.53605769,8.05479452 4.46394231,7.83561644 C4.39182692,7.61643836 4.32211538,7.33333333 4.25480769,6.98630137 C4.1875,6.63926941 4.14182692,6.24200913 4.11778846,5.79452055 C4.09375,5.34703196 4.12980769,4.89041096 4.22596154,4.42465753 C4.40865385,3.46575342 4.74278846,2.73287671 5.22836538,2.2260274 C5.71394231,1.71917808 6.14423077,1.36073059 6.51923077,1.15068493 C6.5,1.39726027 6.48798077,1.6803653 6.48317308,2 C6.47836538,2.3196347 6.49759615,2.66210046 6.54086538,3.02739726 C6.58413462,3.39269406 6.65625,3.76940639 6.75721154,4.15753425 C6.85817308,4.5456621 7,4.93607306 7.18269231,5.32876712 C7.36538462,5.69406393 7.61057692,6.09360731 7.91826923,6.52739726 C8.22596154,6.96118721 8.38942308,7.19178082 8.40865385,7.21917808 C8.46634615,7.30136986 8.54326923,7.35616438 8.63942308,7.38356164 C8.73557692,7.4109589 8.83173077,7.4109589 8.92788462,7.38356164 C9.03365385,7.34703196 9.11298077,7.28767123 9.16586538,7.20547945 C9.21875,7.12328767 9.24519231,7.03196347 9.24519231,6.93150685 L9.24519231,6.93150685 L9.24519231,6.26712329 C9.24519231,5.82420091 9.3125,5.36986301 9.44711538,4.90410959 C9.47596154,4.79452055 9.51201923,4.69634703 9.55528846,4.60958904 C9.59855769,4.52283105 9.64423077,4.44748858 9.69230769,4.38356164 C9.73076923,4.60273973 9.80288462,4.84474886 9.90865385,5.10958904 C10.0144231,5.37442922 10.1634615,5.66210046 10.3557692,5.97260274 C10.6442308,6.42922374 10.8365385,6.83105023 10.9326923,7.17808219 C11.0288462,7.52511416 11.0769231,7.98173516 11.0769231,8.54794521 C11.0769231,9.21461187 10.9495192,9.82648402 10.6947115,10.3835616 C10.4399038,10.9406393 10.0841346,11.4223744 9.62740385,11.8287671 C9.17067308,12.2351598 8.62980769,12.5525114 8.00480769,12.7808219 C7.37980769,13.0091324 6.69230769,13.1232877 5.94230769,13.1232877 Z" id=""></path>
            </g>
        </g>
    </g>
</svg>