<?xml version="1.0" encoding="UTF-8"?>
<svg width="121px" height="24px" viewBox="0 0 121 24" version="1.1" xmlns="http://www.w3.org/2000/svg" xmlns:xlink="http://www.w3.org/1999/xlink">
    <title>Group 227 Copy</title>
    <g id="Design" stroke="none" stroke-width="1" fill="none" fill-rule="evenodd">
        <g id="Group-227-Copy" fill="#F96D00">
            <path d="M9.90384615,24 C11.3782051,24 12.7283654,23.7690802 13.9543269,23.3072407 C15.1802885,22.8454012 16.2419872,22.1996086 17.1394231,21.369863 C18.036859,20.5401174 18.7379808,19.553816 19.2427885,18.4109589 C19.7475962,17.2681018 20,16.0234834 20,14.6771037 C20,13.5499022 19.8998397,12.6223092 19.6995192,11.8943249 C19.4991987,11.1663405 19.1266026,10.3561644 18.5817308,9.46379648 C17.9567308,8.46183953 17.6322115,7.64383562 17.6081731,7.00978474 C17.5841346,6.37573386 17.5721154,6.04305284 17.5721154,6.01174168 C17.6041667,5.87084149 17.5921474,5.73385519 17.5360577,5.60078278 C17.4799679,5.46771037 17.3958333,5.36203523 17.2836538,5.28375734 C17.1714744,5.18982387 17.0472756,5.13502935 16.9110577,5.11937378 C16.7748397,5.1037182 16.6426282,5.12720157 16.5144231,5.18982387 C16.4823718,5.20547945 16.1738782,5.41682975 15.5889423,5.82387476 C15.0040064,6.23091977 14.5673077,6.95107632 14.2788462,7.98434442 C14.1987179,8.25048924 14.1346154,8.51663405 14.0865385,8.78277886 C14.0384615,9.04892368 13.9983974,9.3072407 13.9663462,9.55772994 C13.8541667,9.36986301 13.7459936,9.18590998 13.6418269,9.00587084 C13.5376603,8.8258317 13.4455128,8.65753425 13.3653846,8.50097847 C12.9647436,7.62426614 12.6923077,6.73972603 12.5480769,5.84735812 C12.4038462,4.95499022 12.3277244,4.1409002 12.3197115,3.40508806 C12.3116987,2.66927593 12.3397436,2.0665362 12.4038462,1.59686888 C12.4679487,1.12720157 12.5,0.892367906 12.5,0.892367906 C12.5320513,0.767123288 12.5280449,0.641878669 12.4879808,0.516634051 C12.4479167,0.391389432 12.3798077,0.281800391 12.2836538,0.187866928 C12.1714744,0.109589041 12.0512821,0.0547945205 11.9230769,0.0234833659 C11.7948718,-0.00782778865 11.6666667,-0.00782778865 11.5384615,0.0234833659 C11.4903846,0.0391389432 11.2019231,0.152641879 10.6730769,0.363992172 C10.1442308,0.575342466 9.54326923,0.954990215 8.87019231,1.50293542 C8.19711538,2.05088063 7.5400641,2.79060665 6.89903846,3.7221135 C6.25801282,4.65362035 5.80128205,5.84735812 5.52884615,7.30332681 C5.32051282,8.36790607 5.25641026,9.39334638 5.33653846,10.3796477 C5.41666667,11.3659491 5.53685897,12.2035225 5.69711538,12.8923679 C5.45673077,12.7358121 5.22836538,12.5401174 5.01201923,12.3052838 C4.79567308,12.0704501 4.57532051,11.7886497 4.35096154,11.4598826 C4.04647436,10.9745597 3.7900641,10.4031311 3.58173077,9.74559687 C3.37339744,9.08806262 3.26121795,8.75146771 3.24519231,8.73581213 C3.21314103,8.59491194 3.13701923,8.47358121 3.01682692,8.37181996 C2.89663462,8.27005871 2.75641026,8.21135029 2.59615385,8.19569472 C2.45192308,8.18003914 2.30769231,8.2035225 2.16346154,8.26614481 C2.01923077,8.32876712 1.9150641,8.43052838 1.85096154,8.57142857 C1.81891026,8.60273973 1.70673077,8.80234834 1.51442308,9.1702544 C1.32211538,9.53816047 1.11378205,10.0117417 0.889423077,10.590998 C0.665064103,11.1702544 0.460737179,11.816047 0.276442308,12.5283757 C0.0921474359,13.2407045 0,13.9569472 0,14.6771037 C0,16.0234834 0.244391026,17.2681018 0.733173077,18.4109589 C1.22195513,19.553816 1.90304487,20.5401174 2.77644231,21.369863 C3.64983974,22.1996086 4.69551282,22.8454012 5.91346154,23.3072407 C7.13141026,23.7690802 8.46153846,24 9.90384615,24 Z M9.90384615,22.4970646 C8.68589744,22.4970646 7.56410256,22.3013699 6.53846154,21.9099804 C5.51282051,21.518591 4.62740385,20.9745597 3.88221154,20.2778865 C3.13701923,19.5812133 2.56009615,18.7553816 2.15144231,17.8003914 C1.74278846,16.8454012 1.53846154,15.7964775 1.53846154,14.6536204 C1.53846154,14.0273973 1.63060897,13.3855186 1.81490385,12.7279843 C1.99919872,12.0704501 2.19551282,11.4833659 2.40384615,10.9667319 C2.5,11.18591 2.60416667,11.409002 2.71634615,11.6360078 C2.82852564,11.8630137 2.94070513,12.0704501 3.05288462,12.258317 C3.75801282,13.3385519 4.53525641,14.0626223 5.38461538,14.4305284 C6.23397436,14.7984344 6.68269231,14.9902153 6.73076923,15.0058708 C6.85897436,15.037182 6.9911859,15.0293542 7.12740385,14.9823875 C7.26362179,14.9354207 7.37980769,14.8649706 7.47596154,14.7710372 C7.57211538,14.6614481 7.63221154,14.5362035 7.65625,14.3953033 C7.68028846,14.2544031 7.66826923,14.1213307 7.62019231,13.9960861 C7.62019231,13.9960861 7.56009615,13.8082192 7.43990385,13.4324853 C7.31971154,13.0567515 7.20352564,12.5714286 7.09134615,11.9765166 C6.97916667,11.3816047 6.90304487,10.7005871 6.86298077,9.9334638 C6.82291667,9.16634051 6.88301282,8.38356164 7.04326923,7.5851272 C7.34775641,5.94129159 7.90464744,4.68493151 8.71394231,3.81604697 C9.52323718,2.94716243 10.2403846,2.33268102 10.8653846,1.97260274 C10.8333333,2.39530333 10.8133013,2.88062622 10.8052885,3.42857143 C10.7972756,3.97651663 10.8293269,4.56360078 10.9014423,5.18982387 C10.9735577,5.81604697 11.09375,6.46183953 11.2620192,7.12720157 C11.4302885,7.7925636 11.6666667,8.46183953 11.9711538,9.13502935 C12.275641,9.76125245 12.6842949,10.446184 13.1971154,11.1898239 C13.7099359,11.9334638 13.9823718,12.3287671 14.0144231,12.3757339 C14.1105769,12.5166341 14.2387821,12.6105675 14.3990385,12.6575342 C14.5592949,12.704501 14.7195513,12.704501 14.8798077,12.6575342 C15.0560897,12.5949119 15.1883013,12.4931507 15.2764423,12.3522505 C15.3645833,12.2113503 15.4086538,12.0547945 15.4086538,11.8825832 L15.4086538,11.8825832 L15.4086538,10.7436399 C15.4086538,9.98434442 15.5208333,9.20547945 15.7451923,8.40704501 C15.7932692,8.21917808 15.8533654,8.05088063 15.9254808,7.90215264 C15.9975962,7.75342466 16.0737179,7.62426614 16.1538462,7.5146771 C16.2179487,7.89041096 16.338141,8.30528376 16.5144231,8.7592955 C16.6907051,9.21330724 16.9391026,9.70645793 17.2596154,10.2387476 C17.7403846,11.0215264 18.0608974,11.7103718 18.2211538,12.3052838 C18.3814103,12.9001957 18.4615385,13.6829746 18.4615385,14.6536204 C18.4615385,15.7964775 18.2491987,16.8454012 17.8245192,17.8003914 C17.3998397,18.7553816 16.806891,19.5812133 16.0456731,20.2778865 C15.2844551,20.9745597 14.3830128,21.518591 13.3413462,21.9099804 C12.2996795,22.3013699 11.1538462,22.4970646 9.90384615,22.4970646 Z" id="" fill-rule="nonzero"></path>
            <text id="Fireboard" font-family="PTSerif-Bold, PT Serif" font-size="20" font-weight="bold" line-spacing="24">
                <tspan x="28" y="20">Fireboard</tspan>
            </text>
        </g>
    </g>
</svg>