<?xml version="1.0" encoding="UTF-8"?>
<svg width="24px" height="24px" viewBox="0 0 24 24" version="1.1" xmlns="http://www.w3.org/2000/svg" xmlns:xlink="http://www.w3.org/1999/xlink">
    <title>Group 6 Copy</title>
    <g id="Design" stroke="none" stroke-width="1" fill="none" fill-rule="evenodd">
        <g id="Group-6-Copy">
            <rect id="Rectangle" fill="#FFFFFF" opacity="0" x="0" y="0" width="24" height="24"></rect>
            <path d="M12,12 C12.8982036,12 13.7265469,11.7754491 14.4850299,11.3263473 C15.243513,10.8772455 15.8473054,10.2734531 16.2964072,9.51497006 C16.745509,8.75648703 16.9700599,7.92814371 16.9700599,7.02994012 C16.9700599,6.13173653 16.745509,5.29341317 16.2964072,4.51497006 C15.8473054,3.73652695 15.243513,3.12275449 14.4850299,2.67365269 C13.7265469,2.2245509 12.8982036,2 12,2 C11.1017964,2 10.2734531,2.2245509 9.51497006,2.67365269 C8.75648703,3.12275449 8.15269461,3.73652695 7.70359281,4.51497006 C7.25449102,5.29341317 7.02994012,6.13173653 7.02994012,7.02994012 C7.02994012,7.92814371 7.25449102,8.75648703 7.70359281,9.51497006 C8.15269461,10.2734531 8.75648703,10.8772455 9.51497006,11.3263473 C10.2734531,11.7754491 11.1017964,12 12,12 Z M12,9.60479042 C11.261477,9.60479042 10.6377246,9.36027944 10.1287425,8.87125749 C9.61976048,8.38223553 9.36526946,7.76846307 9.36526946,7.02994012 C9.36526946,6.29141717 9.61976048,5.66766467 10.1287425,5.15868263 C10.6377246,4.6497006 11.261477,4.39520958 12,4.39520958 C12.738523,4.39520958 13.3622754,4.6497006 13.8712575,5.15868263 C14.3802395,5.66766467 14.6347305,6.29141717 14.6347305,7.02994012 C14.6347305,7.76846307 14.3802395,8.38223553 13.8712575,8.87125749 C13.3622754,9.36027944 12.738523,9.60479042 12,9.60479042 Z M22,22 L22,18.257485 C22,17.239521 21.3812375,16.3113772 20.1437126,15.4730539 C19.1057884,14.7744511 17.748503,14.2155689 16.0718563,13.7964072 C14.5748503,13.4171657 13.2175649,13.2275449 12,13.2275449 C10.7824351,13.2275449 9.4251497,13.4171657 7.92814371,13.7964072 C6.25149701,14.2155689 4.89421158,14.7744511 3.85628743,15.4730539 C2.61876248,16.3113772 2,17.239521 2,18.257485 L2,18.257485 L2,22 L22,22 Z M19.6047904,19.6047904 L4.39520958,19.6047904 L4.39520958,18.257485 C4.39520958,17.9780439 4.78443114,17.6287425 5.56287425,17.2095808 C6.34131737,16.7904192 7.27944112,16.4311377 8.37724551,16.1317365 C9.65469062,15.7924152 10.8622754,15.6227545 12,15.6227545 C13.1377246,15.6227545 14.3453094,15.7924152 15.6227545,16.1317365 C16.7205589,16.4311377 17.6586826,16.7904192 18.4371257,17.2095808 C19.2155689,17.6287425 19.6047904,17.9780439 19.6047904,18.257485 L19.6047904,18.257485 L19.6047904,19.6047904 Z" id="" fill="#F96D00" fill-rule="nonzero"></path>
        </g>
    </g>
</svg>